<svg xmlns="http://www.w3.org/2000/svg" viewBox="-4 -4 399.17 108" role="img" aria-label="Birchbark Pet Studio"><title>Birchbark Pet Studio</title><mask id="bh-birchbark-pet-studio" maskUnits="userSpaceOnUse" x="-20" y="-20" width="140" height="140"><rect x="-20" y="-20" width="140" height="140" fill="#fff"/><path d="M45 27C56 33 56 51 49 63C46 68 42 73 36 79C30 70 28 60 30 50C32 40 37 31 45 27Z" fill="#000" stroke="#000" stroke-width="7" stroke-linejoin="round"/><circle cx="67" cy="37.5" r="3.3" fill="#000"/></mask><mask id="bv-birchbark-pet-studio" maskUnits="userSpaceOnUse" x="-20" y="-20" width="140" height="140"><rect x="-20" y="-20" width="140" height="140" fill="#fff"/><path d="M44 31C47 45 45 61 37 75M45.5 42L51 37.5M45.6 52L51.5 48M43.8 61L48.6 58.5M45.3 47L38 41.5M44.3 57L36.5 52.5" fill="none" stroke="#000" stroke-width="1.8" stroke-linecap="round"/></mask><g transform="translate(-9.5 -6.5)"><path d="M29 90C25 74 24 56 30 43C35 31 45 22 57 22C64 22 69 27 72 32C76 34 82 36 87 38C93 40 95 48 91 52C87 55 80 57 73 58C68 61 65 68 64 76C63 81 63 86 64 90Q46 93 29 90Z" fill="#2E4A3F" mask="url(#bh-birchbark-pet-studio)"/><path d="M45 27C56 33 56 51 49 63C46 68 42 73 36 79C30 70 28 60 30 50C32 40 37 31 45 27Z" fill="#C9B48F" mask="url(#bv-birchbark-pet-studio)"/></g><g transform="translate(109.59 51.95)"><path d="M40.64 -4.44Q40.64 0.15 36.87 3.08Q33.09 6 25.41 6H4.87Q3.65 6 3.03 5.43Q2.41 4.87 2.41 3.86Q2.41 2.26 4.05 1.53L5.37 1.1Q6.27 0.77 6.72 0.21Q7.18 -0.34 7.18 -1.42V-29.98Q7.18 -31.06 6.74 -31.62Q6.3 -32.18 5.43 -32.5L4.05 -32.93Q2.41 -33.65 2.41 -35.26Q2.41 -36.27 3.03 -36.84Q3.65 -37.4 4.87 -37.4H20.83Q26.32 -37.4 30.22 -35.81Q34.12 -34.22 36.19 -31.36Q38.27 -28.51 38.27 -24.7Q38.27 -21.62 36.61 -19.19Q34.95 -16.76 31.63 -15.37Q28.3 -13.97 23.28 -13.97L25.01 -15.19Q29.92 -15.19 33.42 -13.82Q36.92 -12.46 38.78 -10.04Q40.64 -7.62 40.64 -4.44ZM21.95 -12.21H13.1V-16.13H20.79Q23.58 -16.13 25.52 -17.08Q27.47 -18.02 28.48 -19.87Q29.5 -21.72 29.5 -24.39Q29.5 -27.06 28.37 -29.04Q27.24 -31.01 24.97 -32.09Q22.7 -33.18 19.25 -33.18H16.41V-2.08Q16.41 -0.16 17.46 0.8Q18.51 1.77 20.55 1.77H23.46Q26.11 1.77 27.89 0.96Q29.67 0.16 30.57 -1.33Q31.47 -2.81 31.47 -4.83Q31.47 -8.16 29.06 -10.19Q26.64 -12.21 21.95 -12.21ZM55.34 -20.81V-0.53Q55.34 0.69 55.62 1.2Q55.91 1.72 56.49 1.97L57.35 2.26Q57.96 2.6 58.3 3.05Q58.63 3.5 58.63 4.18Q58.63 5.04 58.1 5.52Q57.56 6 56.6 6H45.79Q44.84 6 44.29 5.52Q43.75 5.04 43.75 4.18Q43.75 3.5 44.08 3.05Q44.42 2.6 45.04 2.26L45.91 1.97Q46.5 1.72 46.78 1.2Q47.07 0.69 47.07 -0.53V-14.25Q47.07 -15.32 46.77 -15.76Q46.48 -16.2 45.89 -16.39L44.56 -16.52Q43.94 -16.8 43.62 -17.19Q43.3 -17.58 43.3 -18.19Q43.3 -18.87 43.73 -19.35Q44.16 -19.84 45.14 -20.21L50.07 -22.03Q51.24 -22.48 52 -22.69Q52.75 -22.89 53.44 -22.89Q54.34 -22.89 54.84 -22.32Q55.34 -21.75 55.34 -20.81ZM50.63 -27.33Q48.23 -27.33 46.79 -28.61Q45.35 -29.89 45.35 -32.01Q45.35 -34.11 46.79 -35.39Q48.23 -36.66 50.63 -36.66Q53.05 -36.66 54.49 -35.39Q55.94 -34.12 55.94 -32.02Q55.94 -29.89 54.49 -28.61Q53.05 -27.33 50.63 -27.33ZM71.66 -9.78Q71.66 -14.23 72.85 -17.18Q74.05 -20.13 76.06 -21.6Q78.07 -23.06 80.52 -23.06Q83.19 -23.06 84.71 -21.4Q86.22 -19.73 86.22 -16.59Q86.22 -13.91 85.15 -12.61Q84.09 -11.32 82.35 -11.32Q80.55 -11.32 79.63 -12.21Q78.7 -13.1 78.7 -14.66L78.7 -15.75Q78.7 -16.7 78.26 -17.13Q77.81 -17.56 77.02 -17.56Q75.95 -17.56 75.01 -16.72Q74.07 -15.89 73.49 -14.23Q72.91 -12.58 72.91 -10.12ZM72.45 -20.59 72.91 -14.18V-0.53Q72.91 0.61 73.29 1.23Q73.68 1.84 74.56 1.97L76.78 2.26Q77.66 2.38 78.07 2.9Q78.47 3.42 78.47 4.18Q78.47 5.02 77.94 5.51Q77.41 6 76.41 6H63.46Q62.51 6 61.97 5.52Q61.42 5.04 61.42 4.18Q61.42 3.5 61.75 3.06Q62.09 2.62 62.71 2.26L63.58 1.97Q64.17 1.73 64.45 1.21Q64.74 0.69 64.74 -0.53V-14.25Q64.74 -15.32 64.44 -15.76Q64.15 -16.2 63.56 -16.39L62.23 -16.52Q61.61 -16.79 61.29 -17.18Q60.97 -17.58 60.97 -18.19Q60.97 -18.87 61.41 -19.36Q61.84 -19.85 62.81 -20.21L67.82 -22.06Q68.84 -22.45 69.55 -22.67Q70.26 -22.89 70.75 -22.89Q71.47 -22.89 71.9 -22.39Q72.32 -21.89 72.45 -20.59ZM114.75 -14.74Q114.75 -12.85 113.58 -11.68Q112.41 -10.51 110.48 -10.51Q108.54 -10.51 107.56 -11.59Q106.59 -12.67 106.59 -14.42V-15.31Q106.59 -16.91 105.44 -17.87Q104.29 -18.83 102.23 -18.83Q100.37 -18.83 98.89 -17.81Q97.42 -16.78 96.56 -14.87Q95.71 -12.96 95.71 -10.31Q95.71 -6.83 96.94 -4.42Q98.17 -2.02 100.28 -0.8Q102.39 0.42 105.05 0.42Q107.77 0.42 109.5 -0.61Q111.23 -1.65 112.29 -3.2Q112.88 -3.77 113.23 -3.99Q113.57 -4.2 113.94 -4.19Q114.46 -4.18 114.75 -3.8Q115.04 -3.41 115.02 -2.63Q114.92 -0.19 113.36 1.95Q111.79 4.08 109.04 5.39Q106.28 6.71 102.64 6.71Q98.43 6.71 95.18 4.9Q91.93 3.09 90.1 -0.17Q88.27 -3.42 88.27 -7.74Q88.27 -12.1 90.11 -15.56Q91.95 -19.03 95.31 -21.04Q98.67 -23.05 103.21 -23.05Q106.78 -23.05 109.37 -21.9Q111.95 -20.74 113.35 -18.85Q114.75 -16.97 114.75 -14.74ZM128.68 -13.29 126.95 -15.28 128.37 -16.67Q131.87 -20.09 134.74 -21.58Q137.62 -23.06 140.2 -23.06Q143.93 -23.06 146.22 -20.64Q148.5 -18.21 148.5 -14.07V-0.53Q148.5 0.69 148.79 1.21Q149.08 1.72 149.65 1.97L150.52 2.26Q151.14 2.63 151.47 3.06Q151.8 3.5 151.8 4.18Q151.8 5.04 151.26 5.52Q150.73 6 149.76 6H138.99Q137.13 6 137.13 4.18Q137.13 3.09 138.2 2.49L139.11 2.16Q139.72 1.89 139.97 1.34Q140.23 0.78 140.23 -0.53V-12.01Q140.23 -14.5 139.04 -15.8Q137.86 -17.1 135.84 -17.1Q134.48 -17.1 132.95 -16.46Q131.43 -15.82 129.83 -14.34ZM129.62 -37.97V-0.53Q129.62 0.78 129.87 1.34Q130.13 1.89 130.74 2.16L131.64 2.49Q132.7 3.09 132.7 4.18Q132.7 6 130.84 6H120.08Q119.13 6 118.58 5.52Q118.04 5.04 118.04 4.18Q118.04 3.5 118.37 3.05Q118.7 2.61 119.32 2.26L120.19 1.97Q120.78 1.72 121.06 1.21Q121.35 0.69 121.35 -0.53V-31.41Q121.35 -32.48 121.06 -32.92Q120.76 -33.36 120.18 -33.55L118.85 -33.68Q118.23 -33.95 117.91 -34.35Q117.59 -34.74 117.59 -35.35Q117.59 -36.03 118.01 -36.52Q118.44 -37 119.42 -37.37L124.36 -39.19Q125.53 -39.64 126.28 -39.85Q127.03 -40.06 127.72 -40.06Q128.63 -40.06 129.12 -39.48Q129.62 -38.91 129.62 -37.97ZM164.85 -37.97V3.05L161.75 5.34Q160.72 5.86 159.84 6.15Q158.95 6.43 158.19 6.43Q157.43 6.43 157 5.99Q156.57 5.56 156.57 4.69L156.58 -31.41Q156.58 -32.48 156.29 -32.92Q155.99 -33.36 155.41 -33.55L154.08 -33.68Q153.46 -33.95 153.14 -34.35Q152.82 -34.74 152.82 -35.35Q152.82 -36.03 153.25 -36.52Q153.67 -37 154.65 -37.37L159.59 -39.19Q160.76 -39.64 161.51 -39.85Q162.26 -40.06 162.95 -40.06Q163.86 -40.06 164.35 -39.48Q164.85 -38.91 164.85 -37.97ZM163.09 -12.82 161.68 -14.95Q163.97 -18.75 167.06 -20.89Q170.15 -23.04 173.92 -23.04Q177.43 -23.04 180.12 -21.27Q182.82 -19.49 184.35 -16.31Q185.89 -13.13 185.89 -8.88Q185.89 -4.03 184.04 -0.53Q182.19 2.97 179.03 4.84Q175.86 6.71 171.88 6.71Q168.36 6.71 165.61 4.99Q162.86 3.26 161.14 0.14L163.32 -2.93Q164.65 -0.3 166.49 0.93Q168.33 2.16 170.41 2.16Q172.37 2.16 173.93 0.98Q175.48 -0.21 176.39 -2.48Q177.29 -4.75 177.29 -7.98Q177.29 -11.23 176.38 -13.45Q175.46 -15.66 173.88 -16.8Q172.3 -17.94 170.27 -17.94Q168.05 -17.94 166.23 -16.64Q164.42 -15.33 163.09 -12.82ZM207.16 1.91V0.98L206.46 0.61V-15.55Q206.46 -17.54 205.39 -18.63Q204.33 -19.71 202.45 -19.71Q200.81 -19.71 199.87 -19.02Q198.93 -18.32 198.93 -17.24V-15.52Q198.93 -13.66 197.77 -12.66Q196.62 -11.66 194.49 -11.66Q192.57 -11.66 191.62 -12.58Q190.68 -13.5 190.68 -15.05Q190.68 -17.04 192.24 -18.87Q193.81 -20.69 196.88 -21.86Q199.95 -23.02 204.44 -23.02Q209.58 -23.02 212.13 -20.78Q214.68 -18.54 214.68 -14.67V-0.06Q214.68 0.55 214.98 0.97Q215.28 1.38 215.94 1.38Q216.35 1.38 216.61 1.25Q216.86 1.12 217.06 0.92Q217.23 0.77 217.41 0.65Q217.59 0.53 217.84 0.53Q218.39 0.53 218.7 0.95Q219.01 1.36 219.01 2.01Q219.01 3.14 218.29 4.22Q217.56 5.31 216.24 6.01Q214.92 6.71 213.11 6.71Q210.52 6.71 208.84 5.4Q207.16 4.09 207.16 1.91ZM189.47 -0.42Q189.47 -4.34 192.88 -6.69Q196.28 -9.03 202.06 -9.03Q203.73 -9.03 205.27 -8.79Q206.82 -8.54 207.9 -8.11L207.12 -5.33Q206.14 -5.74 205.11 -5.97Q204.07 -6.2 202.87 -6.2Q200.56 -6.2 199.2 -5.08Q197.84 -3.95 197.84 -1.98Q197.84 -0.04 199 0.97Q200.17 1.98 201.98 1.98Q203.67 1.98 205.13 1.21Q206.6 0.44 207.58 -0.86L208.31 1.74Q206.72 4.1 203.95 5.41Q201.19 6.71 198.02 6.71Q194.13 6.71 191.8 4.76Q189.47 2.81 189.47 -0.42ZM231.37 -9.78Q231.37 -14.23 232.57 -17.18Q233.76 -20.13 235.77 -21.6Q237.78 -23.06 240.23 -23.06Q242.91 -23.06 244.42 -21.4Q245.93 -19.73 245.93 -16.59Q245.93 -13.91 244.87 -12.61Q243.8 -11.32 242.06 -11.32Q240.26 -11.32 239.34 -12.21Q238.41 -13.1 238.41 -14.66V-15.75Q238.41 -16.7 237.97 -17.13Q237.52 -17.56 236.73 -17.56Q235.66 -17.56 234.72 -16.72Q233.78 -15.89 233.2 -14.23Q232.62 -12.58 232.62 -10.12ZM232.16 -20.59 232.62 -14.18V-0.53Q232.62 0.61 233 1.23Q233.39 1.84 234.28 1.97L236.49 2.26Q237.37 2.38 237.78 2.9Q238.18 3.42 238.18 4.18Q238.18 5.02 237.65 5.51Q237.12 6 236.12 6H223.17Q222.23 6 221.68 5.52Q221.14 5.04 221.14 4.18Q221.14 3.5 221.47 3.06Q221.8 2.62 222.42 2.26L223.29 1.97Q223.88 1.73 224.16 1.21Q224.45 0.69 224.45 -0.53V-14.25Q224.45 -15.32 224.15 -15.76Q223.86 -16.2 223.27 -16.39L221.94 -16.52Q221.33 -16.79 221.01 -17.18Q220.69 -17.58 220.69 -18.19Q220.69 -18.87 221.12 -19.36Q221.55 -19.85 222.52 -20.21L227.53 -22.06Q228.55 -22.45 229.26 -22.67Q229.97 -22.89 230.46 -22.89Q231.18 -22.89 231.61 -22.39Q232.03 -21.89 232.16 -20.59ZM250.09 6Q249.14 6 248.6 5.52Q248.05 5.04 248.05 4.18Q248.05 3.5 248.38 3.05Q248.71 2.61 249.33 2.26L250.21 1.97Q250.8 1.72 251.08 1.21Q251.36 0.69 251.36 -0.53V-31.41Q251.36 -32.48 251.07 -32.92Q250.78 -33.36 250.19 -33.55L248.86 -33.68Q248.24 -33.95 247.92 -34.35Q247.6 -34.74 247.6 -35.35Q247.6 -36.03 248.03 -36.52Q248.46 -37 249.44 -37.37L254.37 -39.19Q255.54 -39.64 256.29 -39.85Q257.05 -40.06 257.74 -40.06Q258.64 -40.06 259.14 -39.48Q259.63 -38.91 259.63 -37.97V-0.53Q259.63 0.78 259.89 1.34Q260.14 1.89 260.75 2.16L261.65 2.49Q262.72 3.09 262.72 4.18Q262.72 6 260.85 6ZM256.93 -7.38 268.42 -16.8Q269.05 -17.3 269.03 -17.75Q269.01 -18.2 268.33 -18.5L267.33 -18.84Q266.71 -19.15 266.46 -19.57Q266.21 -19.99 266.21 -20.54Q266.21 -21.41 266.77 -21.9Q267.32 -22.38 268.31 -22.38H278.24Q279.2 -22.38 279.74 -21.91Q280.27 -21.43 280.27 -20.56Q280.27 -19.78 279.74 -19.15Q279.2 -18.53 277.46 -18.21Q276.31 -18.01 275.42 -17.56Q274.52 -17.12 273.01 -15.9L258.06 -3.75ZM267.37 -14.34 277.45 -0.2Q278.15 0.75 278.65 1.21Q279.16 1.67 279.84 2.04Q280.73 2.6 281.15 3.1Q281.58 3.6 281.58 4.27Q281.58 5.09 281.04 5.54Q280.51 6 279.54 6H268.46Q267.62 6 267.11 5.52Q266.6 5.03 266.6 4.18Q266.6 3.64 266.84 3.27Q267.08 2.91 267.65 2.6L268.56 2.26Q269.5 1.84 269.34 1.27Q269.18 0.69 268.29 -0.56L261.61 -9.82Z" fill="#2E4A3F"/><path d="M8 25.11Q9.24 25.11 10.13 25.53Q11.03 25.95 11.52 26.74Q12 27.52 12 28.63Q12 29.73 11.52 30.52Q11.03 31.3 10.13 31.72Q9.24 32.14 8 32.14H5.7V36H3.42V25.11ZM7.64 30.34Q8.67 30.34 9.18 29.91Q9.68 29.47 9.68 28.63Q9.68 27.77 9.18 27.34Q8.67 26.91 7.64 26.91H5.7V30.34ZM19.03 36V25.11H27.2V26.95H21.31V29.64H25.95V31.4H21.31V34.16H27.43V36ZM43.03 25.11V26.95H39.39V36H37.11V26.95H33.46V25.11ZM63.48 24.95Q64.97 24.95 66.09 25.46Q67.2 25.97 68 26.97L66.72 28.44Q66.05 27.58 65.25 27.18Q64.45 26.78 63.4 26.78Q62.7 26.78 62.25 26.96Q61.8 27.14 61.59 27.44Q61.39 27.73 61.39 28.1Q61.39 28.54 61.73 28.85Q62.07 29.15 62.92 29.35L64.95 29.81Q66.56 30.17 67.26 30.89Q67.97 31.6 67.97 32.75Q67.97 33.82 67.4 34.59Q66.84 35.36 65.84 35.76Q64.84 36.16 63.52 36.16Q62.39 36.16 61.44 35.89Q60.49 35.62 59.75 35.14Q59.01 34.66 58.51 34.04L59.8 32.5Q60.18 33.03 60.74 33.45Q61.31 33.86 62.02 34.09Q62.73 34.33 63.53 34.33Q64.2 34.33 64.67 34.17Q65.15 34.02 65.38 33.73Q65.62 33.44 65.62 33.02Q65.62 32.61 65.34 32.3Q65.05 32 64.27 31.82L62.06 31.32Q61.1 31.11 60.41 30.73Q59.73 30.35 59.37 29.77Q59.02 29.19 59.02 28.37Q59.02 27.4 59.55 26.63Q60.08 25.85 61.08 25.4Q62.08 24.95 63.48 24.95ZM83.37 25.11V26.95H79.73V36H77.45V26.95H73.8V25.11ZM99.28 25.11V31.7Q99.28 33.93 98.09 35.05Q96.91 36.16 94.63 36.16Q92.36 36.16 91.17 35.05Q89.98 33.93 89.98 31.7V25.11H92.26V31.61Q92.26 32.98 92.85 33.64Q93.43 34.3 94.63 34.3Q95.83 34.3 96.41 33.64Q97 32.98 97 31.61V25.11ZM111.07 25.11Q113.62 25.11 115.03 26.52Q116.43 27.94 116.43 30.55Q116.43 33.17 115.03 34.58Q113.62 36 111.07 36H106.86V25.11ZM110.94 34.19Q112.51 34.19 113.29 33.25Q114.07 32.32 114.07 30.55Q114.07 28.79 113.29 27.86Q112.51 26.92 110.94 26.92H109.14V34.19ZM125.95 25.11V36H123.67V25.11ZM138.43 24.95Q140.05 24.95 141.22 25.62Q142.39 26.3 143.03 27.55Q143.66 28.8 143.66 30.55Q143.66 32.31 143.03 33.56Q142.39 34.81 141.22 35.49Q140.05 36.16 138.43 36.16Q136.82 36.16 135.64 35.49Q134.47 34.81 133.83 33.56Q133.19 32.31 133.19 30.55Q133.19 28.8 133.83 27.55Q134.47 26.3 135.64 25.62Q136.82 24.95 138.43 24.95ZM138.43 26.81Q137.52 26.81 136.88 27.24Q136.23 27.67 135.89 28.51Q135.55 29.34 135.55 30.55Q135.55 31.76 135.89 32.6Q136.23 33.44 136.88 33.87Q137.52 34.3 138.43 34.3Q139.35 34.3 139.99 33.87Q140.63 33.44 140.97 32.6Q141.31 31.76 141.31 30.55Q141.31 29.34 140.97 28.51Q140.63 27.67 139.99 27.24Q139.35 26.81 138.43 26.81Z" fill="#6B7F74"/></g></svg>
